
        <svg xmlns="http://www.w3.org/2000/svg" xmlns:xlink="http://www.w3.org/1999/xlink" version="1.1" width="3187.5" height="1415.6841365265832" viewBox="0 0 3187.5 1415.6841365265832">
			
			<g transform="scale(9.375) translate(10, 10)">
				<defs id="SvgjsDefs1471"/><g id="SvgjsG1472" featureKey="symbolFeature-0" transform="matrix(31.44654257803673,0,0,31.44654257803673,-26.03773753951713,-13.113208120087396)" fill="#000"><g xmlns="http://www.w3.org/2000/svg"><g><circle cx="1.033" cy="1.554" r="0.144"/></g><g><circle cx="0.972" cy="2.041" r="0.144"/></g><g><circle cx="1.21" cy="1.131" r="0.144"/></g><g><circle cx="3.04" cy="1.393" r="0.144"/></g><g><circle cx="3.864" cy="1.675" r="0.144"/></g><g><circle cx="3.805" cy="2.256" r="0.144"/></g><g><circle cx="3.438" cy="3.139" r="0.144"/></g><g><circle cx="3.226" cy="0.752" r="0.144"/></g><g><circle cx="3.592" cy="1.195" r="0.144"/></g><g><circle cx="2.271" cy="1.662" r="0.144"/></g><g><circle cx="2.854" cy="0.561" r="0.144"/></g><g><circle cx="1.61" cy="0.752" r="0.144"/></g><g><path d="M1.818,4.254c-0.036,0-0.064-0.028-0.064-0.063V2.419l-0.69-0.744C1.04,1.649,1.041,1.608,1.066,1.584    C1.093,1.56,1.133,1.561,1.157,1.588l0.708,0.763c0.011,0.011,0.017,0.027,0.017,0.042v1.797C1.882,4.227,1.854,4.254,1.818,4.254    z"/></g><g><path d="M2.201,4.583c-0.036,0-0.064-0.029-0.064-0.065V2.149L1.165,1.177c-0.025-0.024-0.025-0.066,0-0.09    c0.025-0.025,0.065-0.025,0.09,0l0.991,0.991C2.258,2.09,2.265,2.106,2.265,2.123v2.395C2.265,4.553,2.236,4.583,2.201,4.583z"/></g><g><path d="M2.628,4.583c-0.036,0-0.064-0.029-0.064-0.065V1.319c0-0.017,0.006-0.034,0.019-0.045l0.481-0.481    c0.025-0.024,0.065-0.024,0.09,0c0.025,0.025,0.025,0.066,0,0.09L2.692,1.346v3.172C2.692,4.553,2.664,4.583,2.628,4.583z"/></g><g><path d="M3.036,4.254C3,4.254,2.971,4.227,2.971,4.191v-1.68c0-0.017,0.008-0.033,0.019-0.044l0.833-0.833    c0.026-0.026,0.066-0.026,0.091,0c0.025,0.024,0.025,0.065,0,0.09L3.1,2.538v1.653C3.1,4.227,3.072,4.254,3.036,4.254z"/></g><g><path d="M3.593,2.019c-0.017,0-0.033-0.005-0.045-0.017L3.019,1.473c-0.025-0.026-0.025-0.066,0-0.091    c0.024-0.025,0.065-0.025,0.091,0L3.638,1.91c0.024,0.026,0.024,0.065,0,0.092C3.625,2.014,3.608,2.019,3.593,2.019z"/></g><g><path d="M1.77,1.727c-0.017,0-0.033-0.006-0.046-0.019c-0.025-0.027-0.025-0.066,0-0.092l1.092-1.092    c0.025-0.026,0.066-0.026,0.091,0c0.025,0.025,0.025,0.065,0,0.09L1.815,1.708C1.802,1.72,1.786,1.727,1.77,1.727z"/></g><g><path d="M2.126,1.369c-0.016,0-0.032-0.006-0.044-0.019L1.634,0.902c-0.025-0.024-0.025-0.066,0-0.09    c0.024-0.024,0.065-0.024,0.09,0L2.172,1.26c0.024,0.024,0.024,0.066,0,0.09C2.159,1.363,2.143,1.369,2.126,1.369z"/></g><g><circle cx="2.129" cy="0.587" r="0.144"/></g><g><path d="M2.469,1.026c-0.016,0-0.032-0.006-0.045-0.019L2.153,0.736c-0.025-0.024-0.025-0.064,0-0.089    c0.025-0.025,0.066-0.025,0.091,0l0.271,0.271c0.025,0.024,0.025,0.066,0,0.09C2.502,1.02,2.485,1.026,2.469,1.026z"/></g><g><path d="M2.62,2.07c-0.017,0-0.033-0.006-0.045-0.02L2.271,1.747c-0.025-0.024-0.025-0.064,0-0.089    c0.024-0.025,0.065-0.025,0.091,0l0.303,0.304c0.025,0.024,0.025,0.065,0,0.089C2.652,2.064,2.636,2.07,2.62,2.07z"/></g><g><circle cx="3.031" cy="1.966" r="0.144"/></g><g><path d="M3.301,2.296c-0.016,0-0.033-0.007-0.045-0.02L3.031,2.052c-0.025-0.026-0.025-0.065,0-0.091    c0.025-0.025,0.066-0.025,0.091,0l0.225,0.224c0.026,0.026,0.026,0.066,0,0.091C3.334,2.289,3.318,2.296,3.301,2.296z"/></g><g><path d="M3.219,1.647c-0.017,0-0.033-0.006-0.045-0.02c-0.025-0.024-0.025-0.065,0-0.091L3.521,1.19    c0.026-0.026,0.066-0.026,0.091,0c0.025,0.025,0.025,0.065,0,0.09L3.265,1.627C3.252,1.641,3.235,1.647,3.219,1.647z"/></g><g><path d="M1.817,2.951c-0.016,0-0.032-0.006-0.045-0.019L0.926,2.085c-0.025-0.024-0.025-0.064,0-0.089    c0.025-0.025,0.065-0.025,0.091,0l0.846,0.846c0.025,0.024,0.025,0.066,0,0.09C1.851,2.945,1.834,2.951,1.817,2.951z"/></g><g><circle cx="1.235" cy="2.86" r="0.144"/></g><g><path d="M1.816,3.505c-0.017,0-0.033-0.007-0.046-0.02L1.189,2.905c-0.025-0.025-0.025-0.066,0-0.09    c0.025-0.026,0.065-0.026,0.091,0l0.58,0.58c0.025,0.024,0.025,0.066,0,0.091C1.848,3.498,1.832,3.505,1.816,3.505z"/></g><g><path d="M3.043,3.1c-0.017,0-0.033-0.006-0.046-0.019c-0.024-0.025-0.024-0.066,0-0.09L3.72,2.269    c0.024-0.026,0.065-0.026,0.09,0c0.024,0.024,0.024,0.064,0,0.09L3.088,3.082C3.076,3.094,3.059,3.1,3.043,3.1z"/></g><g><path d="M3.036,3.605c-0.016,0-0.033-0.005-0.045-0.018c-0.025-0.026-0.025-0.065,0-0.091l0.403-0.403    c0.024-0.024,0.065-0.024,0.091,0c0.024,0.026,0.024,0.066,0,0.092L3.082,3.587C3.069,3.601,3.052,3.605,3.036,3.605z"/></g></g></g><g id="SvgjsG1473" featureKey="nameFeature-0" transform="matrix(1.0294420488812184,0,0,1.0294420488812184,119.17644640998265,33.76446360895025)" fill="#000"><path d="M13.2 38.4 l2.8 0 l0 1.6 l-15.2 0 l0 -1.6 l3.2 0 l0 -28.8 l-3.2 0 l0 -1.6 l15.2 0 l0 1.6 l-2.8 0 l0 28.8 z M34.72 38.4 l0 1.6 l-12.68 0 l-7.44 -15.24 l0 -1.56 l11.04 -13.6 l-3.56 0 l0 -1.6 l9.84 0 l0 1.6 l-4.08 0 l-11 13.6 l7.68 0 l7.4 15.2 l2.8 0 z M57.519999999999996 18.92 l-1.24 1.24 l-2.56 -2.56 l-3.4 0 l-2.8 2.8 l0 18 l3.2 0 l0 1.6 l-8.68 0 l-3.72 -3.72 l0 -18.68 l-3.2 0 l0 -1.6 l8.68 0 l2.84 2.8 l2.8 -2.8 l5.16 0 z M85.32 19.72 l0 26.56 l-3.72 3.72 l-17.36 0 l-3.32 -3.32 l0 -4.68 l9.2 0 l0 6.4 l6 0 l0 -12.72 l-1.92 1.92 l-8.96 0 l-3.72 -3.72 l0 -16.28 l-3.2 0 l0 -1.6 l8.48 0 l3.72 3.72 l0 16.28 l2.8 0 l2.8 -2.8 l0 -15.6 l-2.8 0 l0 -1.6 l8.28 0 z M91.32 17.6 l0 31.88 l3.72 3.72 l8.28 0 l0 -1.6 l-2.8 0 l0 -13.52 l1.92 1.92 l9.36 0 l3.72 -3.72 l0 -16.56 l-3.72 -3.72 l-9.36 0 l-2.8 2.8 l-2.84 -2.8 l-8.68 0 l0 1.6 l3.2 0 z M100.52 20.4 l2.8 -2.8 l2.8 0 l0 20.8 l-2.8 0 l-2.8 -2.8 l0 -15.2 z M136.12 36.28 l-3.72 3.72 l-7.96 0 l-3.72 -3.72 l0 -25.48 l-2.8 0 l0 -1.6 l8.08 0 l3.32 3.32 l0 5.88 l5.6 0 l0 1.6 l-5.6 0 l0 18.4 l2.2 0 l3.36 -3.36 z M161.88 20.12 l0 15.76 l-4.12 4.12 l-14.72 0 l-4.12 -4.12 l0 -15.76 l4.12 -4.12 l14.72 0 z M148.51999999999998 17.6 l0 20.8 l3.76 0 l0 -20.8 l-3.76 0 z M195.07999999999998 38.4 l0 1.6 l-9.08 0 l-3.32 -3.32 l0 -19.08 l-2.8 0 l-2.8 2.8 l0 18 l2 0 l0 1.6 l-14.4 0 l0 -1.6 l3.2 0 l0 -20.8 l-3.2 0 l0 -1.6 l8.68 0 l2.84 2.8 l2.8 -2.8 l9.16 0 l3.72 3.72 l0 18.68 l3.2 0 z"/></g>
			</g>
		</svg>
	